<?xml version="1.0" encoding="iso-8859-1"?>
<!-- Generator: Adobe Illustrator 18.0.0, SVG Export Plug-In . SVG Version: 6.00 Build 0)  -->
<!DOCTYPE svg PUBLIC "-//W3C//DTD SVG 1.1//EN" "http://www.w3.org/Graphics/SVG/1.1/DTD/svg11.dtd">
<svg xmlns="http://www.w3.org/2000/svg" xmlns:xlink="http://www.w3.org/1999/xlink" version="1.1" id="Capa_1" x="0px" y="0px" viewBox="0 0 489.696 489.696" style="enable-background:new 0 0 489.696 489.696;" xml:space="preserve" width="512px" height="512px">
<g>
	<path d="M128.443,141.07c0.714,1.519,2.232,2.443,3.846,2.443c0.355,0,0.715-0.045,1.072-0.138   c9.271-2.416,36.201-7.216,49.425-0.572c8.676,4.866,18.324,7.389,28.175,7.389c3.631,0,7.29-0.342,10.936-1.033   c13.453-2.552,25.136-9.705,33.517-19.635c0.068-0.064,0.146-0.114,0.21-0.184c13.261-14.275,50.949-18.842,51.329-18.886   c2.172-0.255,3.798-2.117,3.755-4.304c-0.681-35.184-12.499-51.098-32.874-64.17c1.033-0.736,2.034-1.458,2.999-2.162   c16.318-11.904,25.658-20.781,26.048-21.153c1.257-1.2,1.656-3.046,1.008-4.658c-0.647-1.61-2.208-2.665-3.943-2.665   c-0.003,0-0.006,0-0.009,0c-1.413,0.003-22.724,0.153-52.651,5.837C233.699-0.466,203.86-5.028,176.757,5.87   c-22.318,8.969-38.561,26.532-43.994,46.284c-4.367-7.614-11.302-16.674-19.59-16.674c-4.466,0-8.445,2.487-11.828,7.393   c-7.698,11.163-15.961,26.213-11.602,34.515c0.961,1.83,3.406,4.899,8.992,4.9c0.001,0,0.001,0,0.001,0   c0.609,0,1.251-0.037,1.909-0.11c3.11-0.346,6.727-1.394,10.433-2.787c-13.64,10.229-21.6,17.761-22.323,18.451   c-1.257,1.2-1.656,3.045-1.008,4.658c0.648,1.61,2.208,2.665,3.943,2.665c0.003,0,0.006,0,0.009,0   c0.561-0.001,12.243-0.057,30.547-2.382C120.035,116.893,121.721,126.768,128.443,141.07z M134.719,134.324   c-5.109-11.779-5.981-20.09-3.643-32.772c0.076-0.012,0.148-0.021,0.225-0.033c7.451-1.136,14.789-2.49,22.01-4.043   c0.172,1.835,0.421,3.672,0.764,5.487c2.015,10.62,6.837,20.245,13.911,28.059C154.86,130.364,141.05,132.933,134.719,134.324z    M220.312,140.807c-26.836,5.094-52.797-12.599-57.886-39.427c-0.363-1.921-0.61-3.867-0.748-5.808   c15.125-3.638,29.668-8.204,43.488-13.654c19.65,8.706,38.139,13.63,55.243,14.713   C258.443,118.405,242.101,136.677,220.312,140.807z M302.089,102.552c-7.274,1.122-23.323,4.121-36.814,10.313   c1.95-5.064,3.194-10.45,3.645-16.025c5.09-0.063,10.056-0.469,14.873-1.252c2.317-0.377,3.89-2.561,3.514-4.878   c-0.378-2.316-2.559-3.885-4.878-3.513c-19.554,3.18-41.809-0.148-66.254-9.866c21.45-9.458,39.974-20.554,54.058-30.071   C290.13,59.238,300.729,71.85,302.089,102.552z M179.928,13.757c21.797-8.768,45.411-6.417,60.946,5.557   c-16.032,3.536-33.942,8.641-52.275,16.01c-18.325,7.367-34.777,16.074-48.792,24.614   C142.796,40.716,158.351,22.429,179.928,13.757z M99.708,73.73c-0.348,0.038-0.674,0.058-0.97,0.058h-0.001   c-0.214,0-1.292-0.017-1.468-0.352c-1.115-2.125,0.904-10.992,11.074-25.737c1.17-1.697,2.957-3.719,4.83-3.719   c4.648,0,11.063,9.562,14.923,17.603C120.794,65.842,107.424,72.872,99.708,73.73z M191.769,43.21   c41.136-16.535,80.932-21.372,100.18-22.785c-4.122,3.419-9.561,7.737-16.127,12.527c-15.909,11.605-41.307,28.025-71.955,40.346   c-22.764,9.15-47.609,15.818-73.847,19.818c-10.652,1.624-19.699,2.505-26.325,2.983C118.566,83.796,150.636,59.746,191.769,43.21z   " fill="#3e6e1d"/>
	<path d="M242.51,232.618c-6.203,0-11.25,5.047-11.25,11.25c0,6.203,5.047,11.25,11.25,11.25c6.203,0,11.25-5.047,11.25-11.25   C253.76,237.665,248.713,232.618,242.51,232.618z M242.51,246.618c-1.517,0-2.75-1.233-2.75-2.75s1.233-2.75,2.75-2.75   c1.517,0,2.75,1.233,2.75,2.75S244.027,246.618,242.51,246.618z" fill="#3e6e1d"/>
	<path d="M190.098,169.424l-75.264,69.051c-4.997,4.653-7.884,10.974-8.127,17.799c-0.243,6.824,2.186,13.334,6.839,18.331   c4.653,4.997,10.975,7.884,17.799,8.127c0.313,0.012,0.624,0.018,0.934,0.018c5.93,0,11.566-2.041,16.137-5.785l-25.758,87.845   c-0.377,1.285-0.126,2.672,0.677,3.744c0.802,1.071,2.063,1.702,3.401,1.702h48.604l-16.12,75.869   c-1.616,7.606-0.173,15.387,4.063,21.908c4.236,6.521,10.758,11.002,18.364,12.618c2.033,0.432,4.078,0.646,6.109,0.646   c5.565,0,11.019-1.604,15.797-4.707c6.521-4.235,11.003-10.757,12.619-18.362l18.693-87.972h3.973l-17.852,84.268   c-1.617,7.607-0.175,15.387,4.062,21.909c4.235,6.521,10.757,11.002,18.362,12.618c2.034,0.432,4.079,0.646,6.11,0.646   c5.566,0,11.02-1.603,15.797-4.707c6.522-4.235,11.004-10.757,12.62-18.362l20.48-96.372h48.314c1.339,0,2.6-0.631,3.401-1.702   c0.803-1.071,1.054-2.459,0.677-3.743l-34.909-119.088c0.617,0.047,1.234,0.077,1.851,0.077c3.598-0.001,7.15-0.808,10.393-2.322   l0.118,2.978c0.017,0.434,0.116,0.84,0.253,1.229c-0.797,1.588-1.256,3.373-1.256,5.268v26.441c0,6.51,5.297,11.807,11.807,11.807   h51.381c6.51,0,11.807-5.297,11.807-11.807V252.95c0-5.518-3.811-10.15-8.935-11.439l-23.963-51.032   c-0.08-0.171-0.186-0.32-0.285-0.476l0.007-0.01c3.703-5.35,5.112-11.809,3.968-18.188c-1.146-6.393-4.725-11.951-10.072-15.652   c-11.077-7.663-26.302-4.917-33.947,6.13l-17.439,25.291l-34.219-23.574c-11.373-7.578-25.708-12.16-40.619-12.16   C220.175,151.841,201.829,158.778,190.098,169.424z M383.757,241.143h-44.69c-0.857,0-1.69,0.097-2.495,0.271l-0.168-4.254   c0.485-0.576,0.956-1.17,1.391-1.799c0.002-0.003,0.005-0.007,0.007-0.01c0.013-0.019,0.025-0.036,0.038-0.054l25.683-37.247   L383.757,241.143z M358.137,163.144c3.475,2.404,5.798,6.014,6.543,10.163c0.745,4.151-0.175,8.359-2.595,11.855l-26.232,38.044   l-2.085-52.824l2.252-3.267C340.997,159.928,350.917,158.146,358.137,163.144z M321.5,295.036h-72.99   c-2.348,0-4.25,1.902-4.25,4.25c0,2.348,1.902,4.25,4.25,4.25h75.482l11.193,38.188h-196.9l5.626-19.188h63.599   c2.348,0,4.25-1.902,4.25-4.25c0-2.348-1.902-4.25-4.25-4.25h-61.106l33.557-114.44c7.341-3.077,14.472-4.332,21.171-4.386   l12.8,28.266c-1.959,2.025-3.171,4.777-3.171,7.811c0,6.203,5.047,11.25,11.25,11.25c6.203,0,11.25-5.047,11.25-11.25   c0-6.203-5.047-11.25-11.25-11.25c-0.102,0-0.199,0.013-0.3,0.016l-10.915-24.104c20.404,3.258,34.969,16.18,35.854,16.98   c0.786,0.715,1.807,1.107,2.861,1.107c0.111,0,0.223-0.004,0.334-0.014c1.171-0.092,2.251-0.664,2.984-1.581   c3.94-4.926,7.999-8.733,11.951-11.681l-2.564,19.315c-5.832,0.411-10.455,5.275-10.455,11.21c0,6.203,5.047,11.25,11.25,11.25   s11.25-5.047,11.25-11.25c0-3.363-1.491-6.378-3.838-8.441l3.677-27.7c7.085-3.336,13.054-4.166,16.216-4.345   c1.076,2.219,1.975,4.518,2.65,6.893L321.5,295.036z M193.019,177.296l4.321,9.541c-4.327,0.287-8.797,1.021-13.374,2.344   C186.29,184.836,189.357,180.841,193.019,177.296z M222.01,228.536c1.517,0,2.75,1.233,2.75,2.75s-1.233,2.75-2.75,2.75   c-1.517,0-2.75-1.233-2.75-2.75S220.494,228.536,222.01,228.536z M263.01,228.536c1.517,0,2.75,1.233,2.75,2.75   s-1.233,2.75-2.75,2.75s-2.75-1.233-2.75-2.75S261.494,228.536,263.01,228.536z M276.884,174.167   c3.196,2.598,6.055,5.495,8.487,8.654c-2.805,0.446-6.207,1.234-9.982,2.605L276.884,174.167z M269.024,168.79l-2.771,20.868   c-5.592,3.184-11.534,7.722-17.29,14.188c-6.652-5.091-22.36-15.372-42.266-16.946l-6.882-15.197   c10.167-7.112,23.163-11.361,36.934-11.361C248.488,160.341,259.672,163.445,269.024,168.79z M143.887,269.672   c-3.336,3.106-7.655,4.745-12.239,4.565c-4.555-0.162-8.774-2.09-11.881-5.426c-3.106-3.335-4.728-7.681-4.564-12.235   c0.162-4.556,2.089-8.775,5.425-11.881l51.242-47.715l-18.811,64.151L143.887,269.672z M207.859,456.46   c-1.145,5.385-4.317,10.002-8.934,13.001c-3.88,2.519-8.39,3.622-12.927,3.237l12.66-56.482c0.513-2.291-0.928-4.564-3.218-5.077   c-2.293-0.505-4.563,0.928-5.077,3.218l-12.53,55.905c-7.789-4.253-12.234-13.257-10.298-22.371l16.496-77.636h42.145   L207.859,456.46z M269.625,464.86c-1.145,5.385-4.317,10.002-8.935,13.001c-1.338,0.868-2.758,1.551-4.223,2.083l13.219-69.868   c0.437-2.307-1.079-4.529-3.386-4.966c-2.297-0.439-4.529,1.079-4.966,3.386l-13.733,72.593c-0.809-0.075-1.616-0.182-2.422-0.352   c-5.386-1.145-10.003-4.317-13.002-8.935c-2.999-4.617-4.02-10.126-2.874-15.514l18.226-86.033h42.2L269.625,464.86z    M132.412,361.755l3.389-11.557c0.087,0.005,0.169,0.025,0.257,0.025h201.621l3.38,11.531H132.412z M313.236,236.627   l-12.104-41.293c-0.601-2.111-1.354-4.17-2.224-6.178l11.354,7.83c0.929,0.64,2.073,0.886,3.181,0.681   c1.109-0.203,2.092-0.839,2.731-1.768l9.548-13.848l2.042,51.73C323.743,237.021,318.278,238.156,313.236,236.627z    M390.448,282.698h-51.381c-1.823,0-3.307-1.483-3.307-3.307V252.95c0-1.823,1.483-3.307,3.307-3.307h51.37   c0.005,0,0.009,0.001,0.014,0.001c0,0,0.002-0.001,0.003-0.001c1.82,0.004,3.301,1.485,3.301,3.307v6.086h-28.998   c-2.348,0-4.25,1.902-4.25,4.25c0,2.348,1.902,4.25,4.25,4.25h28.998v11.855C393.754,281.215,392.271,282.698,390.448,282.698z" fill="#3e6e1d"/>
</g>
<g>
</g>
<g>
</g>
<g>
</g>
<g>
</g>
<g>
</g>
<g>
</g>
<g>
</g>
<g>
</g>
<g>
</g>
<g>
</g>
<g>
</g>
<g>
</g>
<g>
</g>
<g>
</g>
<g>
</g>
</svg>
